<?xml version="1.0" standalone="no"?>
<!DOCTYPE svg PUBLIC "-//W3C//DTD SVG 20010904//EN"
 "http://www.w3.org/TR/2001/REC-SVG-20010904/DTD/svg10.dtd">
<svg version="1.0" xmlns="http://www.w3.org/2000/svg"
 width="512.000000pt" height="512.000000pt" viewBox="0 0 512.000000 512.000000"
 preserveAspectRatio="xMidYMid meet">

<g transform="translate(0.000000,512.000000) scale(0.100000,-0.100000)"
fill="#000000" stroke="none">
<path d="M1918 2626 l-1416 -1431 43 -30 c61 -44 187 -101 280 -127 l80 -23
1680 -3 c1510 -2 1688 -1 1760 13 302 61 536 285 621 595 28 100 25 300 -4
404 -106 371 -448 616 -825 593 -51 -3 -101 -9 -111 -13 -16 -6 -18 -4 -14 12
3 10 17 58 31 106 109 367 10 768 -257 1047 -117 121 -249 210 -401 269 l-50
19 -1417 -1431z"/>
</g>
</svg>
